<?xml version="1.0" standalone="no"?>
<!DOCTYPE svg PUBLIC "-//W3C//DTD SVG 20010904//EN"
 "http://www.w3.org/TR/2001/REC-SVG-20010904/DTD/svg10.dtd">
<svg version="1.0" xmlns="http://www.w3.org/2000/svg"
 width="507.000000pt" height="507.000000pt" viewBox="0 0 507.000000 507.000000"
 preserveAspectRatio="xMidYMid meet">
<metadata>
Created by potrace 1.11, written by Peter Selinger 2001-2013
</metadata>
<g transform="translate(0.000000,507.000000) scale(0.100000,-0.100000)"
fill="#000000" stroke="none">
<path d="M2530 4319 c-36 -4 -72 -6 -81 -3 -9 2 -29 -1 -45 -7 -16 -6 -45 -13
-64 -15 -62 -6 -185 -82 -268 -164 -36 -36 -53 -63 -61 -96 -18 -71 1 -83 59
-36 64 53 98 65 132 50 12 -6 24 -2 38 12 21 21 40 26 40 10 0 -6 9 -6 26 0
35 14 36 13 19 -14 -15 -23 -15 -24 13 -34 35 -12 82 -70 82 -101 0 -12 -11
-32 -25 -44 -50 -44 -65 -57 -69 -57 -3 0 -27 -22 -53 -48 -62 -62 -143 -117
-143 -97 0 8 -4 15 -9 15 -12 0 -61 44 -61 55 0 4 -8 17 -18 30 -18 22 -19 22
-30 4 -7 -10 -19 -19 -28 -19 -14 0 -16 9 -12 50 3 28 2 50 -1 50 -8 -1 -41
-72 -41 -88 0 -7 -13 -41 -30 -75 -16 -35 -30 -76 -30 -90 0 -15 -4 -27 -9
-27 -10 0 -24 -69 -23 -114 1 -28 -17 -109 -33 -147 -4 -12 -18 -17 -41 -16
-21 1 -39 -5 -45 -13 -21 -30 -2 -142 42 -253 27 -69 39 -111 33 -117 -5 -5
-109 -35 -229 -65 -194 -49 -238 -57 -370 -64 -87 -5 -169 -15 -195 -25 -90
-31 -256 -66 -312 -66 -67 0 -127 -13 -219 -47 -54 -19 -77 -23 -118 -17 -59
8 -82 -3 -191 -92 -51 -41 -80 -57 -111 -61 -23 -3 -43 -12 -46 -21 -8 -19 12
-243 32 -357 90 -527 349 -1015 736 -1391 162 -156 321 -276 517 -389 101 -58
276 -138 280 -127 2 6 -27 111 -79 282 -27 89 -35 250 -16 315 66 223 90 299
125 388 23 56 59 156 81 221 23 66 45 124 49 128 4 4 46 -6 93 -22 84 -31 104
-46 166 -128 21 -27 22 -38 18 -118 -2 -49 -6 -152 -9 -229 -6 -134 -5 -137 7
-80 8 33 19 107 26 165 7 58 16 138 21 178 13 110 39 129 96 66 26 -28 37 -33
51 -26 10 5 34 12 54 16 33 6 41 2 87 -39 27 -25 55 -45 61 -45 26 0 10 -78
-31 -151 -23 -41 -51 -93 -63 -116 -12 -23 -32 -55 -45 -73 -12 -17 -25 -50
-28 -73 l-5 -41 30 34 c30 34 38 48 107 179 19 34 45 75 58 90 13 14 39 46 56
71 18 25 55 75 82 112 28 37 50 73 50 81 0 8 9 22 20 32 11 10 20 23 20 29 0
24 50 85 65 80 11 -5 15 1 15 24 0 16 6 35 14 41 12 10 17 8 27 -11 11 -21 13
-18 26 42 7 36 12 79 11 95 l-3 30 -27 -45 c-30 -52 -96 -118 -84 -85 18 50
78 143 110 172 23 20 36 40 36 56 0 32 20 87 31 87 5 0 12 1 17 1 12 3 43 59
37 69 -8 13 119 160 138 160 11 0 5 -466 -6 -476 -4 -4 -13 -2 -19 4 -19 19
-44 14 -62 -13 -24 -37 -20 -63 10 -71 46 -12 22 -37 -81 -87 -210 -101 -210
-101 -207 -122 13 -76 11 -104 -16 -226 -17 -74 -38 -177 -46 -229 -9 -52 -22
-122 -30 -155 -7 -33 -21 -96 -31 -140 -9 -44 -30 -125 -46 -180 -30 -103 -99
-413 -99 -446 0 -18 9 -19 118 -19 580 0 1166 214 1612 588 124 104 310 298
310 323 0 11 -7 30 -15 42 -8 12 -21 41 -29 65 -15 42 -15 42 15 77 36 41 89
175 89 225 0 19 -13 91 -29 160 -17 69 -37 159 -46 200 -20 94 -50 150 -95
172 -19 10 -50 35 -70 56 -19 22 -85 76 -147 120 -217 156 -389 257 -734 431
-69 34 -139 73 -155 86 -29 23 -29 23 -17 80 7 32 19 65 26 74 8 9 17 45 21
81 10 94 42 256 75 376 16 59 22 161 11 190 -16 42 -45 27 -45 -23 0 -48 -20
-77 -35 -53 -6 8 -7 29 -2 45 17 70 -1 224 -31 263 -5 7 -11 33 -12 57 -1 25
-9 53 -18 63 -9 10 -17 28 -17 39 0 20 -31 94 -92 222 -18 37 -39 66 -50 69
-12 3 -17 10 -13 22 5 17 -39 76 -109 146 -24 24 -89 59 -126 69 -14 3 -38 10
-55 15 -136 39 -172 45 -235 39z m-360 -214 c0 -8 -4 -15 -10 -15 -5 0 -10 7
-10 15 0 8 5 15 10 15 6 0 10 -7 10 -15z m645 -205 c-3 -5 -11 -10 -16 -10 -6
0 -7 5 -4 10 3 6 11 10 16 10 6 0 7 -4 4 -10z m-400 -50 c3 -5 1 -10 -4 -10
-6 0 -11 5 -11 10 0 6 2 10 4 10 3 0 8 -4 11 -10z m752 -51 l12 -44 -24 30
c-26 31 -34 70 -13 63 7 -3 18 -24 25 -49z m-392 11 c3 -5 1 -10 -4 -10 -6 0
-11 5 -11 10 0 6 2 10 4 10 3 0 8 -4 11 -10z m73 -31 c28 15 32 14 32 -9 0
-13 7 -20 20 -20 14 0 20 -7 20 -22 0 -12 7 -29 16 -39 11 -12 13 -25 8 -41
-4 -13 -8 -27 -9 -33 -3 -27 -19 -43 -48 -50 -54 -12 -119 -15 -137 -5 -11 6
-21 5 -27 -1 -7 -7 -16 -7 -29 1 -15 9 -19 24 -19 64 0 47 4 55 42 94 23 23
48 42 56 42 8 0 20 7 27 15 10 12 15 13 20 4 6 -8 13 -8 28 0z m158 -190 c10
-16 -23 -46 -36 -33 -6 6 -8 18 -4 27 7 19 29 22 40 6z m-216 -83 c0 -11 -19
-15 -25 -6 -3 5 1 10 9 10 9 0 16 -2 16 -4z m-162 -18 c-3 -7 -11 -13 -18 -13
-7 0 -15 6 -17 13 -3 7 4 12 17 12 13 0 20 -5 18 -12z m112 2 c0 -5 -7 -10
-15 -10 -8 0 -15 5 -15 10 0 6 7 10 15 10 8 0 15 -4 15 -10z m49 -93 c6 -8 8
-17 4 -20 -7 -8 -33 11 -33 24 0 13 16 11 29 -4z m-149 -27 c0 -16 -4 -30 -10
-30 -5 0 -10 14 -10 30 0 17 5 30 10 30 6 0 10 -13 10 -30z m270 15 c0 -8 -2
-15 -4 -15 -2 0 -6 7 -10 15 -3 8 -1 15 4 15 6 0 10 -7 10 -15z m-71 -96 c-11
-7 -10 -9 4 -9 25 0 21 -27 -5 -33 -29 -8 -40 1 -32 26 8 25 24 38 37 30 5 -3
3 -9 -4 -14z m109 12 c6 -1 12 -8 12 -16 0 -18 -5 -18 -30 -5 -13 7 -21 7 -25
0 -11 -17 -35 -11 -35 9 0 15 6 18 33 15 17 -1 38 -3 45 -3z m-288 -206 c0 -8
9 -39 21 -70 19 -51 22 -55 34 -38 13 17 18 14 77 -44 67 -65 122 -99 176
-109 35 -7 82 -62 82 -96 0 -10 5 -18 11 -18 8 0 9 -12 4 -37 -17 -90 -52 -85
-157 23 -91 94 -112 127 -123 194 -7 43 -29 69 -24 29 5 -36 -14 -38 -30 -4
l-15 30 -9 -53 c-6 -39 -5 -62 4 -85 8 -18 14 -36 15 -42 0 -5 2 -15 2 -22 1
-6 11 -15 22 -18 26 -8 26 -43 -2 -66 -27 -24 -40 -24 -64 2 -16 18 -20 43
-25 188 -4 91 -10 188 -14 215 -6 36 -5 47 3 42 7 -4 12 -13 12 -21z m650 -51
c0 -8 -4 -14 -10 -14 -5 0 -10 9 -10 21 0 11 5 17 10 14 6 -3 10 -13 10 -21z
m-416 -440 c28 -44 34 -60 25 -70 -14 -16 -43 -18 -69 -4 -14 8 -21 6 -28 -6
-7 -12 -18 -14 -54 -9 -56 8 -73 19 -65 39 7 17 42 22 51 7 13 -20 45 3 67 49
13 27 27 49 30 50 3 0 23 -25 43 -56z m-943 -95 c-20 -182 26 -461 94 -568 14
-22 25 -45 25 -50 0 -6 -20 -22 -45 -37 -25 -14 -45 -31 -45 -37 0 -20 40
-119 67 -164 14 -24 24 -46 21 -48 -5 -5 -89 100 -110 139 -15 26 -20 77 -28
281 -6 138 -12 261 -14 275 -9 54 27 321 41 307 2 -3 0 -47 -6 -98z m832 -378
c14 -14 -1 -31 -26 -31 -26 1 -57 22 -57 40 0 14 67 7 83 -9z m-496 -397 c8
-21 -9 -97 -24 -101 -13 -5 -29 77 -19 102 7 20 35 19 43 -1z m31 -227 c27
-45 52 -91 56 -101 7 -20 7 -20 -15 0 -42 37 -109 141 -109 168 0 39 14 26 68
-67z m89 -214 c-3 -10 -5 -4 -5 12 0 17 2 24 5 18 2 -7 2 -21 0 -30z m353 -40
c0 -21 -7 -60 -14 -88 l-14 -50 -1 65 c-1 71 6 110 20 110 5 0 9 -17 9 -37z"/>
<path d="M1996 3944 c-4 -9 -4 -19 -2 -21 8 -8 26 8 26 23 0 19 -16 18 -24 -2z"/>
<path d="M2937 1918 c-7 -23 -1 -38 14 -38 5 0 9 14 9 30 0 35 -15 40 -23 8z"/>
<path d="M2915 1810 c-3 -5 1 -10 9 -10 9 0 16 5 16 10 0 6 -4 10 -9 10 -6 0
-13 -4 -16 -10z"/>
<path d="M2910 1751 c0 -12 5 -21 10 -21 6 0 10 6 10 14 0 8 -4 18 -10 21 -5
3 -10 -3 -10 -14z"/>
<path d="M2210 1080 c0 -5 5 -10 11 -10 5 0 7 5 4 10 -3 6 -8 10 -11 10 -2 0
-4 -4 -4 -10z"/>
</g>
</svg>
